<?xml version="1.0" encoding="utf-8"?>
<!-- Generator: Adobe Illustrator 20.0.0, SVG Export Plug-In . SVG Version: 6.00 Build 0)  -->
<svg version="1.1" id="Layer_1" xmlns="http://www.w3.org/2000/svg" xmlns:xlink="http://www.w3.org/1999/xlink" x="0px" y="0px"
	 viewBox="0 0 372.1 377.5" style="enable-background:new 0 0 372.1 377.5;" xml:space="preserve">
<style type="text/css">
	.st0{fill:#636363;}
</style>
<title>cuak Logo</title>
<g id="Layer_2">
	<g id="Layer_1-2">
		<path class="st0" d="M179,199.4c-15.9,0-31.3-4.7-44.5-13.6l-29.8,8.2l8.2-29.7c-24.7-36.4-15.2-86,21.3-110.7s86-15.2,110.7,21.3
			c4.3,6.3,7.6,13.2,9.9,20.4L293,83.1c-20.2-63-87.6-97.6-150.6-77.4S44.8,93.3,65,156.3c15.9,49.5,62,83.2,114,83.2
			c52,0,98.1-33.6,114-83.1l-38.1-12.2C244.4,177.1,213.7,199.5,179,199.4z"/>
		<circle class="st0" cx="142.4" cy="126.4" r="14.6"/>
		<path class="st0" d="M355.2,267.1h-3v-1.7h7.9v1.7h-3v8.1h-1.9L355.2,267.1z M362.2,265.4h2l3,4.6l3-4.6h1.9v9.8h-1.8v-7l-3,4.7
			h-0.2l-3-4.7v7h-1.8L362.2,265.4z"/>
		<path class="st0" d="M0,335.7v-0.3c0-23.1,17.7-42.2,42.5-42.2c15.3,0,24.8,5.1,32.3,13.6l-14.1,15.1c-5.1-5.4-10.3-8.9-18.4-8.9
			c-11.5,0-19.6,10.1-19.6,22.1v0.3c0,12.4,8,22.4,20.5,22.4c7.7,0,13-3.3,18.6-8.6l13.5,13.6c-7.9,8.6-16.9,14.8-33.1,14.8
			C17.8,377.5,0,358.8,0,335.7z"/>
		<path class="st0" d="M89.6,347.1v-52.4h23v45.2c0,10.9,5.1,16.5,13.9,16.5s14.4-5.6,14.4-16.5v-45.2h23v81h-23v-11.5
			c-5.3,6.8-12.1,13-23.7,13C99.7,377.2,89.6,365.7,89.6,347.1z"/>
		<path class="st0" d="M179.5,352.4v-0.3c0-17.7,13.4-25.8,32.6-25.8c6.7-0.1,13.4,1.1,19.8,3.3v-1.4c0-9.5-5.9-14.8-17.4-14.8
			c-8.8,0-15,1.7-22.4,4.4l-5.7-17.5c8.9-3.9,17.7-6.5,31.4-6.5c12.5,0,21.6,3.3,27.4,9.1c6,6,8.8,15,8.8,25.8v47h-22.2V367
			c-5.6,6.2-13.3,10.3-24.5,10.3C192,377.2,179.5,368.5,179.5,352.4z M232.2,347.1v-4.1c-4.6-2-9.6-3-14.7-3
			c-9.8,0-15.9,3.9-15.9,11.2v0.3c0,6.2,5.1,9.8,12.5,9.8C225,361.4,232.2,355.5,232.2,347.1L232.2,347.1z"/>
		<path class="st0" d="M273.8,265.4h23v58.8l26.9-29.5h27.5l-30.9,31.9l31.9,49.1h-26.6l-20.7-33.2l-8.2,8.6v24.6h-23L273.8,265.4z"
			/>
	</g>
</g>
</svg>
