<svg xmlns="http://www.w3.org/2000/svg" viewBox="0 0 372.13 377.52"><defs><style>.cls-1{fill:#fff;}</style></defs><title>cuak Logo</title><g id="Layer_2" data-name="Layer 2"><g id="Layer_1-2" data-name="Layer 1"><path class="cls-1" d="M179,199.42a79.25,79.25,0,0,1-44.48-13.6L104.77,194l8.2-29.66a79.71,79.71,0,1,1,141.91-69L293,83.14A119.72,119.72,0,1,0,179,239.42a119.76,119.76,0,0,0,114-83.14l-38.09-12.21A79.46,79.46,0,0,1,179,199.42Z"/><circle class="cls-1" cx="142.42" cy="126.36" r="14.64"/><path class="cls-1" d="M355.25,267.12h-3V265.4h7.93v1.72h-3v8.09h-1.88Zm7-1.72h2l3,4.65,3-4.65h1.94v9.81h-1.82v-7l-3,4.68h-.19l-3-4.68v7h-1.82Z"/><path class="cls-1" d="M0,335.66v-.3c0-23.12,17.68-42.16,42.46-42.16,15.26,0,24.78,5.14,32.34,13.6L60.75,321.91C55.61,316.47,50.47,313,42.31,313c-11.48,0-19.64,10.12-19.64,22.06v.3c0,12.39,8,22.36,20.55,22.36,7.71,0,13-3.33,18.59-8.61l13.45,13.6c-7.86,8.61-16.92,14.81-33.09,14.81C17.83,377.52,0,358.78,0,335.66Z"/><path class="cls-1" d="M89.6,347.15V294.71h23v45.18c0,10.88,5.14,16.47,13.9,16.47s14.36-5.59,14.36-16.47V294.71h23v81h-23V364.22c-5.29,6.8-12.09,13-23.72,13C99.73,377.22,89.6,365.73,89.6,347.15Z"/><path class="cls-1" d="M179.51,352.44v-.3c0-17.68,13.45-25.84,32.64-25.84a57.54,57.54,0,0,1,19.79,3.32v-1.36c0-9.52-5.89-14.81-17.38-14.81-8.76,0-15,1.66-22.36,4.38l-5.74-17.53c8.92-3.93,17.68-6.5,31.43-6.5,12.54,0,21.61,3.32,27.35,9.07,6,6,8.76,15,8.76,25.84v47H231.79v-8.76c-5.59,6.2-13.3,10.28-24.48,10.28C192,377.22,179.51,368.45,179.51,352.44Zm52.74-5.29v-4.08a35.63,35.63,0,0,0-14.66-3c-9.82,0-15.87,3.93-15.87,11.18v.3c0,6.2,5.14,9.82,12.54,9.82C225,361.35,232.24,355.46,232.24,347.15Z"/><path class="cls-1" d="M273.8,265.4h23v58.78l26.9-29.47h27.5L320.34,326.6l31.88,49.11H325.63l-20.7-33.24-8.16,8.61v24.63h-23Z"/></g></g></svg>